<svg width="56" height="56" viewBox="0 0 56 56" fill="none" xmlns="http://www.w3.org/2000/svg">
<g clip-path="url(#clip0_1344_12154)">
<circle cx="28" cy="28" r="24" fill="#05141F"/>
<path d="M23.1031 25.5986L20.9267 21.681C20.7428 21.3501 20.3493 21.197 19.9901 21.3167L16.8781 22.3541C16.1435 22.5989 15.6962 23.3429 15.9346 24.0796C16.7364 26.5572 18.7518 30.3795 21.7223 33.3499C24.6927 36.3204 28.5151 38.3358 30.9927 39.1376C31.7294 39.376 32.4733 38.9288 32.7181 38.1942L33.7555 35.0821C33.8752 34.7229 33.7222 34.3294 33.3912 34.1455L29.4736 31.9691C29.1665 31.7985 28.7838 31.852 28.5354 32.1004L27.9735 32.6623C27.552 33.0837 26.9254 33.2374 26.3697 33.022C23.9476 32.2374 22.8349 31.1247 22.0502 28.7025C21.8348 28.1468 21.9885 27.5202 22.41 27.0988L22.9717 26.537C23.2201 26.2886 23.2737 25.9057 23.1031 25.5986Z" fill="#70D7BF"/>
<path d="M26.7038 22.4824C28.3729 22.4824 31.8223 23.5951 32.2673 28.0459M27.7038 18.1443C30.3928 18.2371 35.9378 20.1472 36.6054 27.0459" stroke="#70D7BF" stroke-width="2" stroke-linecap="round"/>
</g>
<defs>
<clipPath id="clip0_1344_12154">
<rect width="56" height="56" fill="white"/>
</clipPath>
</defs>
</svg>
