<svg width="96" height="96" viewBox="0 0 96 96" fill="none" xmlns="http://www.w3.org/2000/svg">
<path d="M38 24C38 25.1046 37.1046 26 36 26C34.8954 26 34 25.1046 34 24C34 22.8954 34.8954 22 36 22C37.1046 22 38 22.8954 38 24Z" fill="#D9D9D9"/>
<path d="M17 72H54V75C54 77.2091 52.2091 79 50 79H21C18.7909 79 17 77.2091 17 75V21C17 18.7909 18.7909 17 21 17H50C52.2091 17 54 18.7909 54 21V33M38 24C38 25.1046 37.1046 26 36 26C34.8954 26 34 25.1046 34 24C34 22.8954 34.8954 22 36 22C37.1046 22 38 22.8954 38 24Z" stroke="#05141F" stroke-width="2" stroke-linecap="round"/>
<path d="M63.4586 48.8751L57.1254 42.5419C55.9369 41.3533 54.0236 41.3396 52.852 42.5111C51.6805 43.6827 51.6942 45.596 52.8828 46.7845" stroke="#05141F" stroke-width="2" stroke-linecap="round"/>
<path d="M67.7012 44.6325L61.368 38.2993C60.1795 37.1108 58.2662 37.097 57.0946 38.2686C55.9231 39.4401 55.9368 41.3534 57.1254 42.542" stroke="#05141F" stroke-width="2" stroke-linecap="round"/>
<path d="M62.7823 39.7135C61.5937 38.5249 61.58 36.6117 62.7515 35.4401C63.9231 34.2685 65.8364 34.2823 67.0249 35.4708L73.3581 41.8041C77.9543 46.1646 85.0254 57.0069 76.5401 65.4921C70.5297 71.5025 64.1657 70.0883 60.6302 69.3812L48.4516 65.5197C47.0888 65.0876 46.1933 63.7856 46.2773 62.3585C46.3886 60.4648 48.1483 59.1067 50.0084 59.4787L56.1231 60.7016C56.4141 60.7598 56.6039 60.4052 56.394 60.1953L38.3563 42.1576C36.9895 40.7908 36.9895 38.5747 38.3563 37.2079C39.7232 35.841 41.9393 35.841 43.3061 37.2079L59.216 53.1178" stroke="#05141F" stroke-width="2" stroke-linecap="round"/>
</svg>
