<svg width="96" height="96" viewBox="0 0 96 96" fill="none" xmlns="http://www.w3.org/2000/svg">
<path d="M16.8 50.4C16.8 47.0863 19.4863 44.4 22.8 44.4H26.8C27.9046 44.4 28.8 45.2955 28.8 46.4V61.6C28.8 62.7046 27.9046 63.6 26.8 63.6H22.8C19.4863 63.6 16.8 60.9137 16.8 57.6V50.4Z" stroke="#05141F" stroke-width="2"/>
<path d="M67.2 46.4C67.2 45.2955 68.0954 44.4 69.2 44.4H73.2C76.5137 44.4 79.2 47.0863 79.2 50.4V57.6C79.2 60.9137 76.5137 63.6 73.2 63.6H69.2C68.0954 63.6 67.2 62.7046 67.2 61.6V46.4Z" stroke="#05141F" stroke-width="2"/>
<path d="M73.2 63.6001V63.6001C73.2 69.5648 68.3647 74.4001 62.4 74.4001H57.6" stroke="black" stroke-width="2"/>
<path d="M40.8 73.6001C40.8 71.391 42.5908 69.6001 44.8 69.6001H53.6C55.8091 69.6001 57.6 71.391 57.6 73.6001V75.2001C57.6 77.4092 55.8091 79.2001 53.6 79.2001H44.8C42.5909 79.2001 40.8 77.4092 40.8 75.2001V73.6001Z" stroke="#05141F" stroke-width="2"/>
<path d="M72 44.4V39.6C72 26.3452 61.2548 16.8 48 16.8C34.7452 16.8 24 27.5452 24 40.8V44.4M67.2 46.8001V40.8C67.2 30.1962 58.6039 21.6 48 21.6C37.3961 21.6 28.8 30.1962 28.8 40.8C28.8 40.8 28.8 43.051 28.8 46.8001" stroke="#05141F" stroke-width="2"/>
</svg>
