<svg width="96" height="96" viewBox="0 0 96 96" fill="none" xmlns="http://www.w3.org/2000/svg">
<path d="M33.125 78.5625H62.875" stroke="#05141F" stroke-width="2" stroke-linecap="round"/>
<path d="M44.8125 69V78.5625" stroke="#05141F" stroke-width="2" stroke-linecap="round"/>
<path d="M51.1875 69V78.5625" stroke="#05141F" stroke-width="2" stroke-linecap="round"/>
<path d="M82 65V41.375V22C82 19.7909 80.2091 18 78 18H18C15.7909 18 14 19.7909 14 22V65C14 67.2091 15.7909 69 18 69H78C80.2091 69 82 67.2091 82 65Z" stroke="#05141F" stroke-width="2" stroke-linecap="round"/>
<path d="M14 58.375H82" stroke="#05141F" stroke-width="2"/>
<path d="M49.8462 26L50.8268 25.8039L50.666 25H49.8462V26ZM46.1539 26V25H45.3341L45.1733 25.8039L46.1539 26ZM50.4667 29.1025L49.4861 29.2987L49.6068 29.9022L50.2001 30.0663L50.4667 29.1025ZM52.5466 29.9648L52.0533 30.8347L52.5889 31.1384L53.1013 30.7968L52.5466 29.9648ZM55.1798 28.2093L55.8869 27.5022L55.3073 26.9225L54.6251 27.3772L55.1798 28.2093ZM57.7907 30.8201L58.6228 31.3748L59.0775 30.6927L58.4978 30.113L57.7907 30.8201ZM56.0352 33.4533L55.2032 32.8986L54.8616 33.411L55.1654 33.9466L56.0352 33.4533ZM56.8976 35.5335L55.9338 35.8001L56.0979 36.3933L56.7015 36.514L56.8976 35.5335ZM60 36.1539H61V35.3341L60.1961 35.1734L60 36.1539ZM60 39.8463L60.1961 40.8268L61 40.6661V39.8463H60ZM56.8976 40.4667L56.7015 39.4862L56.0979 39.6069L55.9338 40.2001L56.8976 40.4667ZM56.0353 42.5468L55.1654 42.0535L54.8617 42.5891L55.2032 43.1015L56.0353 42.5468ZM57.7907 45.1799L58.4978 45.887L59.0775 45.3073L58.6228 44.6252L57.7907 45.1799ZM55.1799 47.7908L54.6252 48.6228L55.3073 49.0776L55.887 48.4979L55.1799 47.7908ZM52.5467 46.0353L53.1014 45.2033L52.5891 44.8617L52.0534 45.1655L52.5467 46.0353ZM50.4666 46.8977L50.2 45.9339L49.6068 46.098L49.486 46.7016L50.4666 46.8977ZM49.8461 50.0001V51.0001H50.6659L50.8267 50.1963L49.8461 50.0001ZM46.1538 50.0001L45.1732 50.1963L45.334 51.0001H46.1538V50.0001ZM45.5333 46.8976L46.5139 46.7015L46.3932 46.098L45.7999 45.9338L45.5333 46.8976ZM43.4534 46.0354L43.9467 45.1655L43.411 44.8618L42.8987 45.2033L43.4534 46.0354ZM40.8202 47.7909L40.1131 48.498L40.6927 49.0777L41.3749 48.6229L40.8202 47.7909ZM38.2093 45.18L37.3772 44.6253L36.9225 45.3074L37.5022 45.8871L38.2093 45.18ZM39.9648 42.5468L40.7968 43.1015L41.1384 42.5892L40.8347 42.0535L39.9648 42.5468ZM39.1024 40.4667L40.0663 40.2001L39.9021 39.6068L39.2986 39.4861L39.1024 40.4667ZM36 39.8462H35V40.666L35.8039 40.8268L36 39.8462ZM36 36.1539L35.8039 35.1733L35 35.3341V36.1539H36ZM39.1025 35.5334L39.2986 36.514L39.9022 36.3933L40.0663 35.8L39.1025 35.5334ZM39.9647 33.4535L40.8346 33.9467L41.1384 33.4111L40.7968 32.8988L39.9647 33.4535ZM38.2093 30.8202L37.5022 30.1131L36.9225 30.6928L37.3772 31.3749L38.2093 30.8202ZM40.8201 28.2094L41.3748 27.3773L40.6927 26.9226L40.113 27.5023L40.8201 28.2094ZM43.4533 29.9648L42.8986 30.7969L43.411 31.1385L43.9466 30.8347L43.4533 29.9648ZM45.5334 29.1025L45.8 30.0663L46.3932 29.9022L46.5139 29.2987L45.5334 29.1025ZM49.8462 25H46.1539V27H49.8462V25ZM51.4473 28.9064L50.8268 25.8039L48.8656 26.1961L49.4861 29.2987L51.4473 28.9064ZM53.0398 29.0949C52.321 28.6873 51.5476 28.364 50.7333 28.1387L50.2001 30.0663C50.8539 30.2472 51.4753 30.5069 52.0533 30.8347L53.0398 29.0949ZM53.1013 30.7968L55.7345 29.0413L54.6251 27.3772L51.9919 29.1327L53.1013 30.7968ZM54.4727 28.9164L57.0836 31.5272L58.4978 30.113L55.8869 27.5022L54.4727 28.9164ZM56.9587 30.2654L55.2032 32.8986L56.8673 34.008L58.6228 31.3748L56.9587 30.2654ZM57.8614 35.2669C57.6361 34.4524 57.3128 33.679 56.9051 32.9601L55.1654 33.9466C55.4932 34.5247 55.7529 35.1462 55.9338 35.8001L57.8614 35.2669ZM60.1961 35.1734L57.0937 34.5529L56.7015 36.514L59.8039 37.1345L60.1961 35.1734ZM61 39.8463V36.1539H59V39.8463H61ZM57.0937 41.4473L60.1961 40.8268L59.8039 38.8657L56.7015 39.4862L57.0937 41.4473ZM56.9052 43.04C57.3128 42.3211 57.6361 41.5477 57.8614 40.7334L55.9338 40.2001C55.7529 40.854 55.4932 41.4754 55.1654 42.0535L56.9052 43.04ZM58.6228 44.6252L56.8673 41.9921L55.2032 43.1015L56.9587 45.7346L58.6228 44.6252ZM55.887 48.4979L58.4978 45.887L57.0836 44.4728L54.4728 47.0837L55.887 48.4979ZM51.992 46.8674L54.6252 48.6228L55.7346 46.9587L53.1014 45.2033L51.992 46.8674ZM50.7332 47.8615C51.5476 47.6362 52.3211 47.3129 53.04 46.9052L52.0534 45.1655C51.4753 45.4933 50.8539 45.753 50.2 45.9339L50.7332 47.8615ZM50.8267 50.1963L51.4472 47.0938L49.486 46.7016L48.8656 49.804L50.8267 50.1963ZM46.1538 51.0001H49.8461V49.0001H46.1538V51.0001ZM44.5527 47.0938L45.1732 50.1963L47.1344 49.804L46.5139 46.7015L44.5527 47.0938ZM42.9601 46.9053C43.679 47.3129 44.4524 47.6362 45.2667 47.8614L45.7999 45.9338C45.1461 45.753 44.5247 45.4933 43.9467 45.1655L42.9601 46.9053ZM41.3749 48.6229L44.0081 46.8674L42.8987 45.2033L40.2655 46.9588L41.3749 48.6229ZM37.5022 45.8871L40.1131 48.498L41.5273 47.0838L38.9164 44.4729L37.5022 45.8871ZM39.1327 41.9921L37.3772 44.6253L39.0413 45.7347L40.7968 43.1015L39.1327 41.9921ZM38.1386 40.7333C38.3639 41.5477 38.6872 42.3212 39.0949 43.0401L40.8347 42.0535C40.5068 41.4754 40.2471 40.854 40.0663 40.2001L38.1386 40.7333ZM35.8039 40.8268L38.9063 41.4473L39.2986 39.4861L36.1961 38.8656L35.8039 40.8268ZM35 36.1539V39.8462H37V36.1539H35ZM38.9064 34.5528L35.8039 35.1733L36.1961 37.1345L39.2986 36.514L38.9064 34.5528ZM39.0949 32.9602C38.6872 33.679 38.3639 34.4524 38.1387 35.2668L40.0663 35.8C40.2472 35.1462 40.5068 34.5248 40.8346 33.9467L39.0949 32.9602ZM37.3772 31.3749L39.1327 34.0082L40.7968 32.8988L39.0413 30.2655L37.3772 31.3749ZM40.113 27.5023L37.5022 30.1131L38.9164 31.5273L41.5272 28.9165L40.113 27.5023ZM44.008 29.1328L41.3748 27.3773L40.2654 29.0414L42.8986 30.7969L44.008 29.1328ZM45.2667 28.1387C44.4524 28.364 43.679 28.6873 42.9601 29.095L43.9466 30.8347C44.5247 30.5069 45.1461 30.2472 45.8 30.0663L45.2667 28.1387ZM45.1733 25.8039L44.5528 28.9064L46.5139 29.2987L47.1344 26.1961L45.1733 25.8039Z" fill="#05141F"/>
<circle cx="48" cy="37.9999" r="3.69232" stroke="#05141F" stroke-width="2"/>
</svg>
