<svg width="96" height="96" viewBox="0 0 96 96" fill="none" xmlns="http://www.w3.org/2000/svg">
<path d="M39.7961 33.442L42.6289 38.3485" stroke="#05141F" stroke-width="2" stroke-linecap="round"/>
<path d="M47.3445 29.084L50.1773 33.9904" stroke="#05141F" stroke-width="2" stroke-linecap="round"/>
<path d="M48.9481 49.2936L60.497 69.2968" stroke="#05141F" stroke-width="2" stroke-linecap="round"/>
<path d="M66.52 62.2969L68.0453 64.9388" stroke="#05141F" stroke-width="2" stroke-linecap="round"/>
<rect x="16.98" y="56.6793" width="13.0742" height="24.4052" rx="2" transform="rotate(-30 16.98 56.6793)" stroke="#05141F" stroke-width="2"/>
<path d="M29.61 52.4068L35.6487 48.9204C37.9133 47.6129 40.3373 45.7102 41.7729 40.3523C42.1063 39.5718 42.4244 39.0292 42.7776 38.6061C43.3314 37.9428 43.9717 37.5731 44.8934 37.041L52.2194 32.8113C53.176 32.259 54.3992 32.5868 54.9515 33.5434L62.6588 46.8928C62.9123 47.332 62.7994 47.9001 62.3359 48.1059C59.9446 49.1674 55.2154 48.8179 51.0218 41.5544M39.6336 69.7681L47.9368 64.9742C48.8901 64.5916 51.0855 64.5184 53.2363 65.4371C55.2402 66.2931 56.4308 66.6122 58.3179 65.5226" stroke="#05141F" stroke-width="2" stroke-linecap="round"/>
<path d="M51.0218 41.5543C51.5886 43.4077 51.5145 47.8117 46.6835 50.6009" stroke="#05141F" stroke-width="2" stroke-linecap="round"/>
<path d="M39.7977 33.4448C35.3977 34.0133 30.8845 31.9525 28.5277 27.8704C26.2498 23.9249 26.6144 19.1789 29.0723 15.6817C29.4626 15.1265 30.2767 15.2106 30.616 15.7984L35.3213 23.9481C36.284 25.6157 38.4163 26.187 40.0838 25.2243C41.7514 24.2615 42.3227 22.1292 41.36 20.4617L36.6547 12.3119C36.3154 11.7242 36.6495 10.9771 37.3255 10.9168C41.5831 10.5367 45.8756 12.5939 48.1535 16.5394C50.5103 20.6215 50.0384 25.5605 47.3461 29.0867" stroke="#05141F" stroke-width="2"/>
<path d="M60.5507 69.39C57.8583 72.9162 57.3865 77.8552 59.7433 81.9373C62.0212 85.8828 66.3137 87.94 70.5713 87.5599C71.2472 87.4996 71.5814 86.7525 71.2421 86.1648L66.5368 78.015C65.5741 76.3475 66.1454 74.2152 67.813 73.2524C69.4805 72.2897 71.6128 72.861 72.5755 74.5286L77.2808 82.6783C77.6201 83.2661 78.4342 83.3502 78.8244 82.795C81.2824 79.2978 81.647 74.5518 79.3691 70.6063C77.0123 66.5242 72.4991 64.4634 68.0991 65.0319" stroke="#05141F" stroke-width="2" stroke-linecap="round"/>
<rect x="61.5239" y="57.1298" width="13.9458" height="6.9729" rx="3.48645" transform="rotate(-30 61.5239 57.1298)" stroke="#05141F" stroke-width="2"/>
<rect x="58.0374" y="51.0909" width="13.9458" height="6.9729" rx="3.48645" transform="rotate(-30 58.0374 51.0909)" stroke="#05141F" stroke-width="2"/>
<path d="M59.399 41.2468L64.6829 38.1962C66.3505 37.2334 68.4827 37.8048 69.4455 39.4723V39.4723C70.4083 41.1399 69.8369 43.2721 68.1694 44.2349L62.8855 47.2855" stroke="#05141F" stroke-width="2"/>
<path d="M58.9633 40.492L64.2471 37.4413C65.9147 36.4786 66.486 34.3463 65.5233 32.6787V32.6787C64.5605 31.0112 62.4282 30.4398 60.7607 31.4026L55.4768 34.4532" stroke="#05141F" stroke-width="2"/>
</svg>
